<svg width="375" height="127" viewBox="0 0 375 127" fill="none" xmlns="http://www.w3.org/2000/svg">
<g clip-path="url(#clip0_2117_135)">
<path d="M80.8612 89.782C59.6824 103.111 33.6088 101.831 15.1082 84.5083C-4.77989 65.8861 -5.02845 34.8385 14.3367 15.804C24.0524 6.25418 36.5841 0.785366 50.5165 0.659192C51.7479 0.572576 53.0177 0.642484 54.2498 0.691862C76.1775 1.57075 95.5527 17.2359 100.867 37.6215C104.574 51.8416 101.569 67.2252 92.257 78.8615C91.4355 79.888 90.4084 80.8748 89.7346 81.9916L89.6698 82.1008C90.271 82.9137 91.0811 83.577 91.7999 84.2918L95.6256 88.0954C97.7111 86.0176 99.2811 88.7157 100.619 90.1022L118.191 108.262C120.304 110.455 122.559 112.571 124.591 114.828C126.518 116.97 123.565 118.57 122.054 119.915L117.799 123.727C111.361 129.408 113.356 128.423 106.906 121.42L96.5041 110.016L90.1991 103.081C88.3707 101.087 84.4979 98.5047 87.0412 96.0992C85.1493 93.8336 82.9045 91.9113 80.8612 89.782ZM50.5165 4.2443C9.20653 4.63121 -11.9992 53.9129 17.2914 81.4477C26.254 89.8734 39.1635 95.8271 51.9094 95.0656C77.6912 94.9265 98.8059 74.1597 98.6374 49.3761C98.4696 24.6283 77.1771 4.00328 51.2724 4.2281C51.0207 4.23029 50.7682 4.23247 50.5165 4.2443ZM87.0412 84.7937C85.9432 85.636 84.8863 86.5755 83.8711 87.5102C84.398 88.0381 89.485 93.2985 89.6698 93.3319C90.7678 92.4634 91.7726 91.5215 92.7205 90.5029C91.9741 89.6995 87.5397 85.0638 87.0412 84.7937ZM97.1003 91.6545C94.8272 93.6562 92.4262 95.658 90.2894 97.7893L104.367 113.057C105.564 114.374 112.335 122.381 113.29 122.694L113.539 122.523C115.784 120.598 118.524 118.261 120.634 116.206C119.247 114.535 117.647 113.019 116.13 111.459L99.8727 94.4886C99.1341 93.7299 97.9016 92.2458 97.1003 91.6545Z" fill="#EC702D"/>
<path d="M31.9918 55.3317L31.9847 30.2098C31.9808 27.6601 31.8416 25.3767 33.5706 23.2399C36.7193 19.3494 43.9466 18.0293 48.7705 17.4564C55.8537 17.3203 62.6594 18.2898 68.4113 22.6333C77.8494 29.7604 77.7917 44.4971 70.6752 53.1066C65.9915 58.7732 59.3378 61.2861 51.9639 61.5115C49.8016 61.5776 47.5879 61.2898 45.4447 61.5224L45.4486 72.4392C45.4486 74.981 45.836 77.8145 44.881 80.2445C42.1784 85.6509 34.096 85.8003 32.3161 79.6836C31.808 77.9373 31.9843 75.8949 31.9854 74.092L31.9918 68.6205C29.0342 68.6308 25.8929 68.9673 23.5762 66.8422C20.8059 64.3006 20.893 59.8041 23.5712 57.2356C25.9091 54.9934 28.9669 55.3194 31.9918 55.3317ZM50.7668 21.124C46.7183 21.185 39.7679 22.37 36.9052 25.1888C35.4496 26.6221 35.7102 28.4952 35.7134 30.334L35.7194 52.517C35.7215 53.6127 35.9503 56.9048 35.592 57.7553C34.472 60.4117 28.3969 57.744 26.0309 59.9851C24.8699 61.0849 24.9443 63.1395 26.1535 64.1877C28.268 66.0203 33.9098 63.9501 35.3561 65.7632C36.0374 66.6171 35.7347 68.6614 35.7322 69.6657L35.7194 74.9681C35.7237 76.565 35.4783 78.8191 36.8344 80.0174C38.0889 81.1264 39.9952 80.7956 40.9923 79.5345C41.8881 78.4014 41.6873 76.6595 41.688 75.3111L41.6866 64.6645C41.6848 62.8721 41.5354 60.9365 41.7333 59.1592C42.0655 56.1774 45.1023 57.7027 47.0816 57.8518C53.946 58.3694 60.6472 57.3437 65.9388 52.7431C72.959 46.6397 74.3466 33.9487 67.7909 27.0708C63.7018 22.7803 56.7478 20.6912 50.7668 21.124Z" fill="#EC702D"/>
<path d="M45.4447 48.254C48.198 48.6226 51.0189 48.8699 53.7753 48.3976C59.3353 47.4448 63.9871 42.6928 62.847 37.0416C61.5727 30.7268 52.6391 29.4538 47.2597 30.6391C45.9071 30.9372 43.2105 32.4441 41.921 31.4722C41.0415 30.8093 41.2111 29.4644 41.9061 28.7418C43.197 27.3992 47.8991 26.7284 49.7435 26.6684C62.3371 25.2645 71.7756 36.3821 64.0579 46.4705C59.5863 52.3154 51.5007 53.0145 44.659 51.7517C40.2983 50.9466 41.6721 49.437 41.7025 46.1009C41.7234 43.7537 40.6775 37.9003 43.7253 37.7881L43.8312 37.785C46.0406 38.3688 45.4567 40.5564 45.4528 42.2662L45.4447 48.254Z" fill="#EC702D"/>
<path d="M190.13 84V32.27H203.92C210.71 32.27 214.49 33.04 217.71 35C221.7 37.45 224.01 42.21 224.01 48.02C224.01 53.55 221.84 58.17 218.13 60.62C215.05 62.72 211.41 63.49 204.48 63.49H196.78V84H190.13ZM196.78 57.33H204.13C210.71 57.33 217.29 56.28 217.29 48.09C217.29 38.64 210.01 38.43 202.8 38.43H196.78V57.33ZM231.146 84V32.27H244.656C259.006 32.27 266.076 37.73 266.076 48.86C266.076 57.82 260.966 63.28 251.376 64.75L265.726 84H257.466L239.686 59.36H243.816C254.246 59.36 259.356 55.93 259.356 48.93C259.356 41.58 254.736 38.43 244.096 38.43H237.796V84H231.146ZM271.287 58.17C271.287 43.19 283.467 31.36 298.937 31.36C313.567 31.36 325.747 43.47 325.747 58.17C325.747 73.01 313.637 84.91 298.657 84.91C283.607 84.91 271.287 72.94 271.287 58.17ZM278.007 58.17C278.007 69.44 287.247 78.68 298.587 78.68C309.927 78.68 319.027 69.58 319.027 58.24C319.027 46.69 309.927 37.59 298.307 37.59C287.247 37.59 278.007 46.97 278.007 58.17ZM333.822 84V32.27H360.142V38.43H340.472V54.95H359.372V61.18H340.472V84H333.822ZM368.001 84V32.27H374.651V84H368.001Z" fill="#557CCA"/>
</g>
<defs>
<clipPath id="clip0_2117_135">
<rect width="375" height="127" fill="white"/>
</clipPath>
</defs>
</svg>
