<svg width="171" height="63" viewBox="0 0 171 63" fill="none" xmlns="http://www.w3.org/2000/svg">
<path d="M38.3648 44.2291C28.3164 50.7954 15.9458 50.1649 7.16813 41.6312C-2.26783 32.4574 -2.38576 17.1625 6.80208 7.78563C11.4117 3.08114 17.3574 0.387056 23.9677 0.324899C24.5519 0.28223 25.1544 0.316668 25.739 0.340993C36.1426 0.773955 45.3352 8.49102 47.8566 18.5335C49.6155 25.5387 48.1897 33.1171 43.7716 38.8494C43.3818 39.3551 42.8945 39.8412 42.5748 40.3914L42.5441 40.4452C42.8293 40.8456 43.2137 41.1724 43.5547 41.5245L45.3698 43.3983C46.3593 42.3747 47.1042 43.7038 47.7392 44.3869L56.076 53.3327C57.0788 54.4132 58.1484 55.4554 59.1123 56.5675C60.0268 57.6229 58.626 58.4109 57.9088 59.0733L55.8899 60.9512C52.8353 63.75 53.7821 63.2646 50.722 59.815L45.7866 54.1967L42.7952 50.7808C41.9277 49.7982 40.0902 48.5262 41.2969 47.3412C40.3993 46.225 39.3343 45.2781 38.3648 44.2291ZM23.9677 2.09102C4.36806 2.28162 -5.69304 26.5591 8.20396 40.1235C12.4563 44.2742 18.5812 47.2071 24.6286 46.832C36.8608 46.7634 46.8787 36.5332 46.7988 24.3241C46.7191 12.1327 36.6169 1.97228 24.3263 2.08304C24.2069 2.08411 24.0871 2.08519 23.9677 2.09102ZM41.2969 41.7718C40.776 42.1867 40.2745 42.6495 39.7929 43.11C40.0429 43.37 42.4564 45.9615 42.5441 45.9779C43.065 45.55 43.5418 45.0861 43.9915 44.5843C43.6373 44.1885 41.5334 41.9048 41.2969 41.7718ZM46.0695 45.1516C44.991 46.1377 43.8519 47.1238 42.838 48.1737L49.5172 55.6948C50.0853 56.3438 53.2975 60.288 53.7505 60.4424L53.869 60.3584C54.934 59.4099 56.2341 58.2589 57.235 57.2462C56.5771 56.4232 55.818 55.6765 55.098 54.908L47.3849 46.5477C47.0344 46.174 46.4497 45.4429 46.0695 45.1516Z" fill="#EC702D"/>
<path d="M15.1786 27.2582L15.1752 14.8825C15.1734 13.6265 15.1074 12.5016 15.9276 11.449C17.4216 9.53239 20.8506 8.8821 23.1393 8.59987C26.5 8.53285 29.7289 9.01044 32.4579 11.1501C36.9359 14.6611 36.9085 21.9208 33.532 26.1621C31.3099 28.9536 28.153 30.1915 24.6544 30.3026C23.6285 30.3352 22.5782 30.1934 21.5614 30.3079L21.5632 35.6858C21.5632 36.938 21.747 38.3339 21.2939 39.531C20.0117 42.1943 16.1769 42.2678 15.3325 39.2546C15.0914 38.3943 15.1751 37.3882 15.1756 36.5001L15.1786 33.8047C13.7754 33.8097 12.2849 33.9755 11.1858 32.9286C9.87143 31.6766 9.91275 29.4614 11.1834 28.1961C12.2927 27.0916 13.7434 27.2522 15.1786 27.2582ZM24.0864 10.4066C22.1656 10.4367 18.868 11.0204 17.5098 12.4091C16.8192 13.1151 16.9428 14.0379 16.9443 14.9437L16.9472 25.8716C16.9482 26.4114 17.0567 28.0332 16.8867 28.4521C16.3554 29.7608 13.473 28.4466 12.3505 29.5506C11.7996 30.0924 11.8349 31.1046 12.4086 31.621C13.4118 32.5237 16.0886 31.5039 16.7748 32.3971C17.098 32.8177 16.9544 33.8248 16.9532 34.3196L16.9472 36.9316C16.9492 37.7183 16.8328 38.8287 17.4762 39.4191C18.0714 39.9654 18.9758 39.8024 19.4489 39.1812C19.8739 38.623 19.7787 37.7649 19.779 37.1006L19.7783 31.8558C19.7775 30.9728 19.7066 30.0193 19.8005 29.1438C19.9581 27.6749 21.3989 28.4263 22.338 28.4997C25.5948 28.7547 28.7742 28.2494 31.2848 25.983C34.6156 22.9763 35.2739 16.7244 32.1636 13.3362C30.2235 11.2225 26.9241 10.1934 24.0864 10.4066Z" fill="#EC702D"/>
<path d="M21.5614 23.7708C22.8677 23.9524 24.2061 24.0741 25.5139 23.8415C28.1518 23.3721 30.3589 21.0312 29.8179 18.2472C29.2133 15.1364 24.9748 14.5093 22.4225 15.0932C21.7808 15.24 20.5014 15.9824 19.8895 15.5036C19.4723 15.177 19.5527 14.5145 19.8825 14.1585C20.495 13.4971 22.7259 13.1667 23.601 13.1371C29.576 12.4455 34.0542 17.9223 30.3925 22.8922C28.2709 25.7715 24.4347 26.1159 21.1886 25.4938C19.1196 25.0972 19.7714 24.3535 19.7859 22.7101C19.7958 21.5538 19.2996 18.6702 20.7456 18.615L20.7958 18.6134C21.8441 18.901 21.5671 19.9787 21.5652 20.821L21.5614 23.7708Z" fill="#EC702D"/>
<path d="M75.59 16.135H82.485C83.325 16.135 84.0833 16.1583 84.76 16.205C85.4367 16.2517 86.0433 16.3333 86.58 16.45C87.14 16.5667 87.6417 16.7067 88.085 16.87C88.5517 17.0333 88.9833 17.2433 89.38 17.5C90.3833 18.1067 91.1533 18.9817 91.69 20.125C92.25 21.245 92.53 22.54 92.53 24.01C92.53 25.41 92.2733 26.6583 91.76 27.755C91.2467 28.8517 90.5233 29.7033 89.59 30.31C88.82 30.8233 87.9217 31.1967 86.895 31.43C85.8683 31.64 84.4917 31.745 82.765 31.745H78.915V42H75.59V16.135ZM82.59 28.665C83.4067 28.665 84.2117 28.6183 85.005 28.525C85.7983 28.4317 86.4983 28.2217 87.105 27.895C87.735 27.5683 88.2367 27.1017 88.61 26.495C88.9833 25.8883 89.17 25.0717 89.17 24.045C89.17 22.855 88.96 21.945 88.54 21.315C88.12 20.6617 87.5717 20.1833 86.895 19.88C86.2183 19.5533 85.4483 19.3667 84.585 19.32C83.7217 19.25 82.835 19.215 81.925 19.215H78.915V28.665H82.59ZM96.0978 16.135H102.853C109.993 16.135 113.563 18.9 113.563 24.43C113.563 26.6933 112.933 28.49 111.673 29.82C110.436 31.15 108.616 32.0017 106.213 32.375L113.388 42H109.258L100.368 29.68H102.433C107.613 29.68 110.203 27.9417 110.203 24.465C110.203 22.6217 109.596 21.2917 108.383 20.475C107.169 19.635 105.233 19.215 102.573 19.215H99.4228V42H96.0978V16.135ZM116.168 29.085C116.168 27.2183 116.518 25.4683 117.218 23.835C117.942 22.2017 118.922 20.7783 120.158 19.565C121.418 18.3517 122.888 17.4067 124.568 16.73C126.248 16.03 128.057 15.68 129.993 15.68C131.813 15.68 133.54 16.0417 135.173 16.765C136.807 17.465 138.23 18.4217 139.443 19.635C140.657 20.8483 141.613 22.2717 142.313 23.905C143.037 25.515 143.398 27.2417 143.398 29.085C143.398 30.9283 143.037 32.6667 142.313 34.3C141.613 35.9333 140.645 37.3567 139.408 38.57C138.195 39.76 136.76 40.705 135.103 41.405C133.47 42.105 131.72 42.455 129.853 42.455C127.963 42.455 126.19 42.105 124.533 41.405C122.877 40.705 121.43 39.7483 120.193 38.535C118.957 37.3217 117.977 35.91 117.253 34.3C116.53 32.6667 116.168 30.9283 116.168 29.085ZM119.528 29.085C119.528 30.485 119.797 31.815 120.333 33.075C120.87 34.3117 121.605 35.3967 122.538 36.33C123.472 37.2633 124.557 37.9983 125.793 38.535C127.053 39.0717 128.395 39.34 129.818 39.34C131.242 39.34 132.572 39.0717 133.808 38.535C135.045 37.9983 136.118 37.275 137.028 36.365C137.962 35.4317 138.697 34.3467 139.233 33.11C139.77 31.8733 140.038 30.5433 140.038 29.12C140.038 27.6733 139.77 26.32 139.233 25.06C138.697 23.8 137.962 22.715 137.028 21.805C136.095 20.8717 134.998 20.1367 133.738 19.6C132.478 19.0633 131.125 18.795 129.678 18.795C128.302 18.795 126.995 19.075 125.758 19.635C124.522 20.1717 123.437 20.9067 122.503 21.84C121.593 22.7733 120.87 23.87 120.333 25.13C119.797 26.3667 119.528 27.685 119.528 29.085ZM147.436 16.135H160.596V19.215H150.761V27.475H160.211V30.59H150.761V42H147.436V16.135ZM164.526 16.135H167.851V42H164.526V16.135Z" fill="#557CCA"/>
</svg>
